<svg xmlns="http://www.w3.org/2000/svg" viewBox="0 0 512 512" fill="none">
  <defs>
    <linearGradient id="cardGrad" x1="0%" y1="0%" x2="100%" y2="100%">
      <stop offset="0%" stop-color="#06b6d4"/>
      <stop offset="50%" stop-color="#8b5cf6"/>
      <stop offset="100%" stop-color="#6d28d9"/>
    </linearGradient>
    <linearGradient id="gold" x1="0%" y1="0%" x2="100%" y2="100%">
      <stop offset="0%" stop-color="#fde68a"/>
      <stop offset="50%" stop-color="#fbbf24"/>
      <stop offset="100%" stop-color="#d97706"/>
    </linearGradient>
    <linearGradient id="innerShade" x1="0%" y1="0%" x2="0%" y2="100%">
      <stop offset="0%" stop-color="white" stop-opacity="0.15"/>
      <stop offset="100%" stop-color="black" stop-opacity="0.2"/>
    </linearGradient>
    <filter id="glow" x="-20%" y="-20%" width="140%" height="140%">
      <feGaussianBlur in="SourceGraphic" stdDeviation="8" result="blur"/>
      <feComposite in="SourceGraphic" in2="blur" operator="over"/>
    </filter>
    <filter id="cardShadow" x="-10%" y="-5%" width="120%" height="120%">
      <feDropShadow dx="0" dy="4" stdDeviation="12" flood-color="#06b6d4" flood-opacity="0.35"/>
    </filter>
    <filter id="starGlow" x="-50%" y="-50%" width="200%" height="200%">
      <feGaussianBlur in="SourceGraphic" stdDeviation="4" result="blur"/>
      <feComposite in="SourceGraphic" in2="blur" operator="over"/>
    </filter>
  </defs>
  <g filter="url(#cardShadow)">
    <path d="M256,42 C256,42 372,42 404,42 C422,42 438,58 438,78 L438,304 C438,348 404,390 256,472 C108,390 74,348 74,304 L74,78 C74,58 90,42 108,42 C140,42 256,42 256,42 Z" fill="url(#cardGrad)" stroke="white" stroke-width="2" stroke-opacity="0.2"/>
    <path d="M256,42 C256,42 372,42 404,42 C422,42 438,58 438,78 L438,304 C438,348 404,390 256,472 C108,390 74,348 74,304 L74,78 C74,58 90,42 108,42 C140,42 256,42 256,42 Z" fill="url(#innerShade)"/>
  </g>
  <path d="M256,68 C256,68 360,68 386,68 C400,68 412,80 412,94 L412,296 C412,332 384,368 256,440 C128,368 100,332 100,296 L100,94 C100,80 112,68 126,68 C152,68 256,68 256,68 Z" fill="#0f172a" opacity="0.85"/>
  <g opacity="0.2" stroke="#22d3ee" stroke-width="1.5" fill="none">
    <rect x="140" y="160" width="232" height="180" rx="4"/>
    <line x1="256" y1="160" x2="256" y2="340"/>
    <circle cx="256" cy="250" r="32"/>
    <circle cx="256" cy="250" r="3" fill="#22d3ee"/>
    <rect x="140" y="210" width="40" height="80" rx="2"/>
    <rect x="332" y="210" width="40" height="80" rx="2"/>
    <rect x="132" y="230" width="8" height="40" rx="1"/>
    <rect x="372" y="230" width="8" height="40" rx="1"/>
  </g>
  <g filter="url(#glow)">
    <circle cx="168" cy="250" r="7" fill="#ef4444"/>
    <circle cx="190" cy="210" r="5.5" fill="#ef4444" opacity="0.8"/>
    <circle cx="190" cy="250" r="5.5" fill="#ef4444" opacity="0.8"/>
    <circle cx="190" cy="290" r="5.5" fill="#ef4444" opacity="0.8"/>
  </g>
  <g filter="url(#glow)">
    <circle cx="344" cy="250" r="7" fill="#3b82f6"/>
    <circle cx="322" cy="210" r="5.5" fill="#3b82f6" opacity="0.8"/>
    <circle cx="322" cy="250" r="5.5" fill="#3b82f6" opacity="0.8"/>
    <circle cx="322" cy="290" r="5.5" fill="#3b82f6" opacity="0.8"/>
  </g>
  <g filter="url(#glow)">
    <circle cx="236" cy="184" r="5.5" fill="#22c55e" opacity="0.8"/>
    <circle cx="256" cy="174" r="5.5" fill="#22c55e" opacity="0.8"/>
    <circle cx="276" cy="184" r="5.5" fill="#22c55e" opacity="0.8"/>
  </g>
  <g filter="url(#glow)">
    <circle cx="236" cy="316" r="5.5" fill="#eab308" opacity="0.8"/>
    <circle cx="256" cy="326" r="5.5" fill="#eab308" opacity="0.8"/>
    <circle cx="276" cy="316" r="5.5" fill="#eab308" opacity="0.8"/>
  </g>
  <g filter="url(#starGlow)">
    <polygon points="256,80 266,110 298,112 272,132 280,164 256,146 232,164 240,132 214,112 246,110" fill="url(#gold)"/>
    <polygon points="256,90 262,108 282,110 268,124 272,144 256,134 240,144 244,124 230,110 250,108" fill="white" opacity="0.15"/>
  </g>
  <g transform="translate(256, 392)" opacity="0.9">
    <circle cx="0" cy="0" r="18" fill="white"/>
    <path d="M0,-18 L0,-10 M-17,-6 L-9,-3 M-11,15 L-6,8 M11,15 L6,8 M17,-6 L9,-3" stroke="#0f172a" stroke-width="1.5" fill="none"/>
    <polygon points="0,-10 -9,-3 -6,8 6,8 9,-3" fill="#0f172a" opacity="0.2"/>
  </g>
  <path d="M256,42 C256,42 372,42 404,42 C422,42 438,58 438,78 L438,120 C380,140 300,100 200,130 C140,148 100,130 74,120 L74,78 C74,58 90,42 108,42 C140,42 256,42 256,42 Z" fill="white" opacity="0.06"/>
  <line x1="100" y1="90" x2="130" y2="90" stroke="url(#gold)" stroke-width="2" stroke-linecap="round" opacity="0.6"/>
  <line x1="100" y1="90" x2="100" y2="120" stroke="url(#gold)" stroke-width="2" stroke-linecap="round" opacity="0.6"/>
  <line x1="382" y1="90" x2="412" y2="90" stroke="url(#gold)" stroke-width="2" stroke-linecap="round" opacity="0.6"/>
  <line x1="412" y1="90" x2="412" y2="120" stroke="url(#gold)" stroke-width="2" stroke-linecap="round" opacity="0.6"/>
</svg>
